<svg xmlns="http://www.w3.org/2000/svg" viewBox="0 0 128 128" role="img" aria-labelledby="title">
  <title id="title">FontGenerators.app</title>
  <rect width="128" height="128" rx="26" fill="#FDFBF7"/>
  <circle cx="64" cy="64" r="56" fill="#F5F0E6"/>
  <defs>
    <linearGradient id="outer" x1="22" y1="22" x2="98" y2="113" gradientUnits="userSpaceOnUse">
      <stop offset="0" stop-color="#A9C9A3"/>
      <stop offset="1" stop-color="#76AD91"/>
    </linearGradient>
    <linearGradient id="inner" x1="55" y1="45" x2="112" y2="105" gradientUnits="userSpaceOnUse">
      <stop offset="0" stop-color="#7CBAB0"/>
      <stop offset="1" stop-color="#3FA18E"/>
    </linearGradient>
  </defs>
  <path d="M98 36C88 27 73 24 59 26C36 30 21 51 21 75C21 99 40 115 64 115C75 115 85 112 94 105" fill="none" stroke="url(#outer)" stroke-width="12" stroke-linecap="round" stroke-linejoin="round"/>
  <path d="M58 107V63C58 55 64 50 72 50H96" fill="none" stroke="url(#inner)" stroke-width="12" stroke-linecap="round" stroke-linejoin="round"/>
  <path d="M58 78H99C107 78 112 85 106 91C104 93 102 94 100 95" fill="none" stroke="url(#inner)" stroke-width="12" stroke-linecap="round" stroke-linejoin="round"/>
</svg>
